<svg xmlns="http://www.w3.org/2000/svg" viewBox="0 0 128 128">
  <path fill="#EE4C2C" d="M100.2 20.8c-5.5-5.1-11.2-8.2-16.9-8.2-3.8 0-7.3 1.1-10.5 3.2-3.2 2.1-5.9 5.2-8.1 9.1-2.2 3.9-3.9 8.7-5.1 14.1-1.2 5.5-1.8 11.7-1.8 18.7 0 7 .6 13.2 1.8 18.7 1.2 5.5 2.9 10.2 5.1 14.1 2.2 3.9 4.9 6.9 8.1 9.1 3.2 2.1 6.7 3.2 10.5 3.2 5.7 0 11.4-3.1 16.9-8.2 5.5-5.1 10.4-12.9 14.6-22.7 4.2-9.8 6.4-21.6 6.4-35.2 0-13.6-2.1-25.4-6.4-35.2-4.2-9.8-9.1-17.6-14.6-22.7zM64 2.6c13.3 0 25.4 2.6 36.3 7.7 10.9 5.1 19.5 12.5 25.7 22.2 6.2 9.7 9.3 21.1 9.3 34.3 0 13.2-3.1 24.6-9.3 34.3-6.2 9.7-14.8 17.1-25.7 22.2-10.9 5.1-23 7.7-36.3 7.7s-25.4-2.6-36.3-7.7C16.8 118.2 8.2 110.8 2 101.1c-6.2-9.7-9.3-21.1-9.3-34.3 0-13.2 3.1-24.6 9.3-34.3C8.2 22.8 16.8 15.4 27.7 10.3 38.6 5.2 50.7 2.6 64 2.6zm0 10.5c-11.6 0-22.2 2.2-31.7 6.5-9.5 4.3-17 10.7-22.3 19.2-5.3 8.5-8 18.5-8 30.1 0 11.6 2.7 21.6 8 30.1 5.3 8.5 12.8 14.9 22.3 19.2 9.5 4.3 20.1 6.5 31.7 6.5 11.6 0 22.2-2.2 31.7-6.5 9.5-4.3 17-10.7 22.3-19.2 5.3-8.5 8-18.5 8-30.1 0-11.6-2.7-21.6-8-30.1-5.3-8.5-12.8-14.9-22.3-19.2-9.5-4.3-20.1-6.5-31.7-6.5z"/>
  <circle fill="#EE4C2C" cx="79.4" cy="44.4" r="9.5"/>
</svg>
